<?xml version="1.0" standalone="no"?>
<!DOCTYPE svg PUBLIC "-//W3C//DTD SVG 20010904//EN"
 "http://www.w3.org/TR/2001/REC-SVG-20010904/DTD/svg10.dtd">
<svg version="1.0" xmlns="http://www.w3.org/2000/svg"
 width="512.000000pt" height="512.000000pt" viewBox="0 0 512.000000 512.000000"
 preserveAspectRatio="xMidYMid meet">

<g transform="translate(0.000000,512.000000) scale(0.100000,-0.100000)"
fill="#000000" stroke="none">
<path d="M0 2560 l0 -2560 2560 0 2560 0 0 2560 0 2560 -2560 0 -2560 0 0
-2560z m4410 1895 l0 -95 -195 -208 -194 -207 -1 -90 c0 -85 2 -93 28 -125
153 -187 303 -494 363 -746 68 -287 66 -628 -7 -916 -135 -537 -518 -997
-1029 -1239 -131 -61 -331 -125 -475 -150 -148 -26 -402 -35 -540 -20 -659 75
-1215 459 -1506 1041 -322 644 -235 1462 215 2024 29 37 31 43 31 125 l0 86
-195 213 -195 213 2 92 2 92 5 -91 6 -91 198 -212 197 -213 0 -70 0 -71 113
110 c313 306 673 481 1099 533 129 16 442 8 568 -15 368 -67 702 -241 982
-514 l118 -114 0 74 1 74 199 213 200 212 0 90 c0 50 2 90 5 90 3 0 5 -43 5
-95z m-4050 -261 c0 -8 -7 -14 -15 -14 -15 0 -21 21 -9 33 10 9 24 -2 24 -19z
m4430 0 c0 -16 -16 -19 -25 -4 -8 13 4 32 16 25 5 -4 9 -13 9 -21z m-482 -234
c4 0 28 20 52 45 l44 45 108 0 c59 0 108 -3 108 -7 0 -5 -49 -6 -108 -5 l-108
4 -52 -57 -52 -56 -3 -287 c-1 -190 -2 -151 -3 118 0 223 2 359 3 303 2 -57 7
-103 11 -103z m-3474 -195 c0 -211 -3 -388 -7 -391 -4 -4 -7 121 -7 277 l0
285 -53 52 -54 53 -102 -2 c-56 -1 -105 1 -108 5 -4 3 43 6 103 6 l110 0 44
-45 c24 -25 48 -45 52 -45 4 0 8 43 8 95 0 52 3 95 8 95 4 0 7 -173 6 -385z
m4015 -321 c-9 -11 -15 -12 -25 -3 -11 9 -12 15 -3 25 9 11 15 12 25 3 11 -9
12 -15 3 -25z m-4539 11 c0 -8 -9 -15 -20 -15 -11 0 -20 7 -20 15 0 8 9 15 20
15 11 0 20 -7 20 -15z m4540 -3084 c0 -5 11 -23 25 -39 22 -26 23 -32 11 -45
-9 -9 -11 -19 -5 -28 8 -13 13 -5 10 14 -1 5 3 6 9 2 6 -3 7 0 4 9 -7 18 4 20
26 5 12 -8 12 -12 2 -16 -24 -10 -71 -54 -77 -73 -9 -27 -17 -25 -37 10 -10
17 -31 38 -48 48 -16 9 -30 19 -30 22 0 3 14 13 30 22 17 10 38 31 48 48 17
29 32 39 32 21z"/>
<path d="M2320 4415 c-377 -55 -684 -191 -968 -430 -49 -41 -121 -110 -161
-153 l-71 -80 0 -213 0 -213 67 -68 c37 -37 64 -71 60 -75 -5 -4 -39 26 -77
67 l-69 75 -1 193 c0 105 -3 192 -7 192 -5 0 -31 -33 -59 -73 -394 -559 -461
-1286 -176 -1890 269 -567 791 -954 1425 -1054 137 -21 417 -21 557 1 618 96
1136 473 1406 1021 218 444 252 951 95 1425 -56 168 -197 432 -300 560 l-21
25 0 -200 0 -201 -75 -74 c-92 -91 -99 -83 -10 11 l65 69 0 211 0 211 -62 71
c-251 283 -628 495 -1021 573 -164 32 -445 42 -597 19z m130 -280 c0 -8 -7
-15 -15 -15 -8 0 -15 7 -15 15 0 8 7 15 15 15 8 0 15 -7 15 -15z m-260 -125
c0 -5 -4 -10 -10 -10 -5 0 -10 5 -10 10 0 6 5 10 10 10 6 0 10 -4 10 -10z
m760 0 c0 -5 -4 -10 -10 -10 -5 0 -10 5 -10 10 0 6 5 10 10 10 6 0 10 -4 10
-10z m-295 -29 c58 -21 205 -106 256 -148 48 -41 81 -116 230 -532 l84 -234 3
99 3 99 -46 43 c-25 24 -45 49 -45 56 0 6 19 30 42 51 l42 40 -38 -43 -37 -44
50 -53 51 -54 0 -95 c0 -52 -4 -97 -9 -101 -6 -3 -2 -29 10 -62 29 -85 26
-150 -11 -205 -38 -57 -238 -291 -254 -297 -13 -5 -15 -7 125 161 59 70 114
144 124 165 22 46 16 136 -14 208 -11 28 -50 133 -86 235 -92 257 -141 382
-186 473 -36 71 -46 81 -108 122 -154 98 -255 134 -328 116 -62 -16 -146 -60
-223 -118 -55 -40 -71 -60 -102 -123 -42 -83 -116 -269 -185 -460 -24 -69 -60
-167 -80 -219 -20 -52 -38 -113 -41 -136 -8 -77 25 -126 292 -434 49 -57 85
-102 79 -100 -12 5 -222 240 -302 338 -59 74 -90 133 -91 173 0 41 216 634
298 818 l47 105 100 67 c163 109 238 128 350 89z m-285 -220 c-5 -29 -14 -101
-20 -161 -8 -88 -8 -116 4 -147 8 -21 23 -64 35 -95 11 -31 22 -82 23 -114 3
-64 14 -56 -108 -89 -27 -7 -84 -29 -125 -48 -81 -37 -148 -101 -197 -188 -20
-38 -23 -40 -17 -14 8 41 70 129 118 170 44 38 147 84 247 111 36 10 68 20 72
23 11 10 -17 129 -51 213 -31 77 -31 79 -21 165 6 47 18 117 25 155 8 38 15
72 15 75 0 4 2 4 5 1 3 -2 1 -28 -5 -57z m399 -81 c28 -155 27 -183 -15 -291
-20 -52 -37 -114 -38 -138 -1 -44 -1 -45 39 -54 73 -16 169 -49 229 -79 104
-52 192 -163 201 -254 l4 -49 -9 44 c-16 73 -111 196 -179 230 -48 25 -208 81
-213 75 -3 -2 -18 2 -34 11 -16 8 -35 15 -43 15 -23 0 -7 115 28 204 36 89 39
140 16 290 -16 107 -17 122 -11 115 3 -3 14 -56 25 -119z m-882 -82 c-3 -8 -6
-5 -6 6 -1 11 2 17 5 13 3 -3 4 -12 1 -19z m0 -125 c-3 -10 -5 -2 -5 17 0 19
2 27 5 18 2 -10 2 -26 0 -35z m65 -70 c15 -15 28 -34 28 -43 0 -9 -20 -36 -45
-60 l-45 -44 -1 -111 c-1 -91 -3 -101 -9 -60 -5 28 -6 81 -2 120 5 65 8 72 48
114 l44 45 -32 33 c-38 39 -26 45 14 6z m-784 -240 c11 -10 93 -101 183 -203
89 -102 187 -211 217 -243 l54 -58 -6 -51 c-11 -79 -19 -88 -76 -88 -46 0 -50
2 -50 25 0 17 -30 56 -102 132 -55 59 -142 152 -191 207 l-90 99 6 88 c7 115
15 127 55 92z m2832 -2 c5 -11 10 -56 10 -100 l0 -80 -52 -59 c-29 -32 -115
-126 -190 -209 -101 -110 -138 -158 -138 -177 0 -16 -7 -27 -20 -31 -11 -4
-26 -18 -33 -31 -13 -24 -14 -24 -40 41 -15 37 -27 85 -27 109 0 40 6 50 63
112 35 38 114 128 177 199 129 148 221 245 232 245 4 0 12 -9 18 -19z m-1230
-14 c0 -2 -12 -14 -27 -28 l-28 -24 24 28 c23 25 31 32 31 24z m-292 -287 c19
-31 12 -33 -30 -7 -34 20 -158 133 -158 143 0 11 176 -117 188 -136z m307 78
c-96 -90 -182 -141 -135 -81 21 27 177 142 194 143 5 0 -22 -28 -59 -62z
m-1625 -159 c51 -57 97 -113 102 -125 13 -28 3 -74 -16 -74 -8 0 -55 43 -105
96 l-91 96 1 82 c0 57 3 73 9 54 4 -14 49 -73 100 -129z m2910 6 c-10 -28
-161 -192 -184 -200 -21 -8 -36 9 -36 41 0 26 30 66 130 175 48 53 81 97 81
111 1 13 5 -6 9 -42 4 -36 4 -74 0 -85z m-3020 -140 c0 -9 -6 -12 -16 -8 -13
5 -13 7 -2 14 17 11 18 11 18 -6z m3040 1 c0 -3 -4 -8 -10 -11 -5 -3 -10 -1
-10 4 0 6 5 11 10 11 6 0 10 -2 10 -4z m-3050 -126 c0 -5 -4 -10 -10 -10 -5 0
-10 5 -10 10 0 6 5 10 10 10 6 0 10 -4 10 -10z m535 -61 c2 -3 1 -21 -4 -40
-5 -19 -12 -45 -15 -59 l-5 -26 63 4 c38 3 72 -1 86 -8 20 -11 22 -17 16 -56
-3 -24 -18 -89 -32 -144 l-27 -100 -39 0 c-21 0 -38 3 -38 8 0 4 11 53 25 110
14 57 25 105 25 108 0 2 -21 4 -48 4 l-47 0 -30 -115 -29 -115 -38 0 c-21 0
-38 4 -38 9 0 10 49 229 76 336 9 39 20 75 25 80 7 10 65 13 74 4z m1719 2 c3
-5 -17 -104 -45 -220 l-51 -211 -39 0 c-21 0 -39 4 -39 9 0 9 87 383 96 414 6
18 68 25 78 8z m412 -4 c2 -2 0 -19 -5 -38 -24 -93 -27 -86 34 -81 68 6 102
-3 110 -28 10 -30 -44 -239 -67 -262 -18 -18 -30 -20 -100 -16 -43 3 -81 1
-84 -4 -8 -13 -64 -9 -64 5 0 27 93 413 103 425 9 12 62 11 73 -1z m-756 -11
c0 -8 -4 -26 -10 -40 -8 -21 -16 -26 -44 -26 -42 0 -46 5 -34 48 8 29 12 32
48 32 28 0 40 -4 40 -14z m-1860 -203 l1 -98 52 97 c49 92 54 98 84 98 l32 0
3 -95 3 -94 49 94 49 95 43 0 c24 0 44 -2 44 -4 0 -2 -39 -71 -86 -155 l-85
-151 -45 0 -44 0 0 78 -1 77 -42 -77 -42 -78 -47 0 -48 0 0 155 0 155 40 0 40
0 0 -97z m911 87 c25 -14 25 -50 -2 -153 -23 -93 -41 -132 -64 -141 -9 -3 -58
-6 -110 -6 -131 0 -130 -2 -84 185 27 112 43 125 155 125 47 0 94 -5 105 -10z
m293 -6 c21 -21 20 -43 -8 -149 -13 -49 -27 -102 -30 -117 -6 -27 -7 -27 -89
-27 -45 0 -90 -3 -99 -6 -9 -4 -26 -1 -39 5 -19 11 -21 18 -16 67 10 96 42
123 148 123 52 0 59 2 59 20 0 17 -8 19 -77 22 -77 3 -78 3 -75 28 5 49 6 50
111 50 77 0 103 -4 115 -16z m146 6 c0 -7 6 -7 19 0 27 14 114 13 129 -2 9 -9
18 -9 37 0 38 18 130 15 149 -4 9 -8 16 -18 16 -22 0 -4 -14 -67 -32 -139
l-32 -133 -42 0 -41 0 23 98 c32 134 33 132 -19 132 l-43 0 -28 -115 -28 -115
-39 0 c-21 0 -39 3 -39 8 0 4 9 45 20 92 11 47 22 95 25 108 5 20 2 22 -39 22
l-45 0 -15 -52 c-8 -29 -20 -73 -26 -98 -21 -83 -18 -80 -61 -80 -34 0 -40 3
-35 18 2 9 19 79 36 155 l32 137 39 0 c22 0 39 -5 39 -10z m480 0 c0 -6 -16
-76 -36 -155 l-36 -145 -39 0 c-22 0 -39 4 -39 9 0 10 44 199 61 264 9 35 12
37 49 37 22 0 40 -5 40 -10z m594 4 c37 -14 38 -40 5 -173 l-32 -129 -112 -1
c-128 -1 -141 6 -130 61 21 107 34 119 140 127 56 5 70 9 73 24 3 15 -6 17
-72 17 -41 0 -77 4 -80 9 -3 5 -3 23 0 40 l7 31 92 0 c52 0 101 -3 109 -6z
m632 -14 c-19 -65 -11 -60 -101 -60 -62 0 -84 -4 -88 -14 -9 -22 2 -26 63 -26
74 0 96 -20 86 -81 -9 -57 -32 -98 -59 -104 -12 -3 -67 -5 -123 -3 l-100 3 8
32 8 32 88 3 c82 3 87 4 90 26 3 21 0 22 -61 22 -80 0 -92 11 -84 79 11 96 33
109 175 110 99 1 103 0 98 -19z m-1029 -115 l-10 -35 -94 0 -93 0 6 28 c4 15
9 30 11 35 2 4 46 7 98 7 l93 0 -11 -35z m-1719 -229 c25 -8 27 -15 10 -51
-11 -24 -28 -29 -85 -24 -10 0 -6 50 7 84 10 25 12 26 28 13 9 -9 27 -19 40
-22z m1216 6 c11 -13 14 -28 10 -49 -6 -28 -10 -31 -58 -36 -58 -6 -63 -3 -72
41 -6 30 -5 32 23 32 16 0 38 7 49 15 25 19 28 19 48 -3z m-670 -42 c-17 -39
-19 -40 -58 -36 -22 3 -46 0 -54 -6 -17 -15 -30 -1 -38 40 l-6 32 58 1 c33 1
70 4 84 8 14 4 27 7 29 5 1 -1 -5 -21 -15 -44z m1872 -8 c6 -32 6 -32 -34 -32
-41 0 -55 10 -66 46 -5 17 0 22 31 30 45 12 60 3 69 -44z m-515 38 c26 0 29
-3 29 -34 0 -37 -23 -54 -46 -36 -7 7 -27 8 -48 4 -34 -6 -37 -4 -50 27 -14
32 -13 34 7 41 12 4 35 5 51 2 16 -2 41 -4 57 -4z m-974 -52 c-2 -13 -4 -5 -4
17 -1 22 1 32 4 23 2 -10 2 -28 0 -40z m473 17 c0 -19 -4 -35 -10 -35 -5 0
-10 16 -10 35 0 19 5 35 10 35 6 0 10 -16 10 -35z m-895 -81 c-17 -13 -18 -16
-5 -24 13 -8 12 -10 -2 -10 -11 0 -18 7 -18 18 0 23 9 32 29 32 13 -1 12 -4
-4 -16z m225 8 c0 -5 -6 -17 -14 -27 -13 -18 -13 -17 -13 8 0 16 5 27 13 27 8
0 14 -4 14 -8z m60 -11 c0 -11 -5 -23 -12 -27 -8 -5 -9 -2 -5 9 3 9 2 19 -4
22 -5 4 -13 -4 -18 -17 -10 -23 -10 -23 -10 -1 -1 21 10 31 37 32 6 1 12 -8
12 -18z m52 13 c12 -11 -5 -44 -23 -44 -19 0 -27 29 -12 43 8 8 28 9 35 1z
m933 -4 c13 21 35 10 34 -17 -2 -24 -2 -25 -6 -5 -5 26 -23 30 -23 4 0 -13 -9
-19 -35 -20 -29 -2 -35 1 -35 18 0 11 4 20 10 20 5 0 7 -7 3 -16 -4 -12 -2
-15 8 -12 8 3 12 13 11 23 -3 16 -1 17 11 6 10 -8 17 -9 22 -1z m-1175 -17 c0
-14 2 -14 15 3 11 14 14 15 15 4 0 -10 3 -11 8 -4 11 17 42 13 42 -7 0 -15
-10 -17 -75 -16 -63 0 -75 3 -75 17 0 12 10 17 35 18 26 1 35 -3 35 -15z m963
-3 c-3 -11 -7 -20 -9 -20 -2 0 -4 9 -4 20 0 11 4 20 9 20 5 0 7 -9 4 -20z m65
13 c-21 -5 -23 -19 -5 -26 6 -3 2 -6 -10 -6 -17 -1 -23 5 -23 19 0 15 6 20 28
19 16 -1 20 -3 10 -6z m42 -3 c-13 -9 -13 -11 0 -20 12 -8 11 -10 -7 -10 -25
0 -26 1 -17 24 3 9 14 16 23 16 14 0 14 -2 1 -10z m-1780 -76 c0 -3 -14 -22
-31 -42 -17 -20 -41 -64 -54 -97 -22 -54 -79 -124 -92 -111 -3 2 2 26 10 53 8
26 20 67 26 90 13 48 81 113 118 113 13 0 23 -3 23 -6z m641 -19 c4 -11 8 -68
8 -128 l1 -107 -122 -131 c-68 -72 -126 -138 -130 -147 -4 -10 -7 -34 -7 -54
-1 -20 -5 -40 -11 -43 -6 -4 -10 22 -10 72 l0 77 62 63 c34 34 59 66 55 69 -4
4 -40 -24 -81 -62 l-74 -69 -2 -100 c-3 -112 -17 -91 -19 28 l-1 68 95 100 95
99 0 129 c0 71 3 136 6 144 4 12 20 15 66 13 50 -1 63 -5 69 -21z m694 -18 c4
-23 5 -184 3 -357 -4 -313 -4 -316 -31 -390 -15 -41 -31 -78 -36 -83 -6 -6
-22 30 -40 87 l-31 96 0 329 c0 181 3 336 6 345 5 12 21 16 64 16 l59 0 6 -43z
m708 -17 c4 -30 5 -91 1 -136 l-5 -80 39 -50 c22 -27 65 -74 96 -104 l56 -54
-1 -71 c-2 -116 -16 -144 -18 -34 l-1 96 -50 47 c-27 25 -52 46 -55 46 -3 0
13 -23 35 -51 42 -53 45 -69 34 -152 -8 -58 -24 -51 -24 9 0 25 -5 55 -11 67
-6 12 -63 74 -126 138 l-115 116 -1 124 c-1 68 1 129 5 135 5 7 33 11 70 10
l63 -2 8 -54z m593 23 c36 -34 43 -49 63 -127 12 -49 20 -90 18 -93 -13 -12
-76 68 -92 117 -10 30 -31 71 -47 90 -15 19 -28 38 -28 42 0 21 50 4 86 -29z
m-1599 -116 c-2 -23 -3 -1 -3 48 0 50 1 68 3 42 2 -26 2 -67 0 -90z m463 -41
c-7 -7 -10 13 -10 66 0 109 14 132 18 29 2 -49 -1 -88 -8 -95z m-574 -124 c-3
-2 -16 9 -30 24 -24 28 -25 34 -24 139 l2 110 3 -111 c3 -96 6 -114 23 -129
20 -18 20 -17 22 116 l2 134 3 -139 c2 -76 1 -141 -1 -144z m693 122 c1 -48
-3 -85 -9 -89 -7 -4 -10 36 -9 122 1 141 15 115 18 -33z m26 -94 c-16 -16 -31
-28 -33 -25 -4 4 48 54 57 55 3 0 -8 -13 -24 -30z m-1087 -548 c2 -7 -3 -12
-12 -12 -9 0 -16 7 -16 16 0 17 22 14 28 -4z m715 -77 c-7 -21 -13 -19 -13 6
0 11 4 18 10 14 5 -3 7 -12 3 -20z"/>
<path d="M1140 3129 c0 -26 18 -51 102 -143 56 -61 109 -118 118 -127 8 -9 53
-60 100 -113 47 -53 95 -104 108 -112 20 -13 22 -13 22 6 0 13 -44 69 -112
143 -62 68 -162 180 -222 250 -60 70 -111 127 -113 127 -1 0 -3 -14 -3 -31z"/>
<path d="M3875 3043 c-55 -64 -155 -177 -222 -250 -93 -101 -123 -140 -123
-160 l0 -26 26 24 c14 13 72 76 127 139 56 63 145 162 198 220 63 69 99 117
104 138 3 18 3 32 -2 32 -4 0 -53 -53 -108 -117z"/>
<path d="M1064 2824 c4 -15 38 -62 76 -105 38 -43 75 -88 82 -99 17 -27 28
-25 28 6 0 19 -25 55 -86 125 -47 55 -91 99 -96 99 -6 0 -7 -11 -4 -26z"/>
<path d="M3963 2760 c-68 -77 -92 -112 -93 -132 0 -16 3 -28 8 -27 6 0 98 108
165 193 10 13 17 34 15 47 -3 20 -15 9 -95 -81z"/>
<path d="M3646 2191 c-22 -96 -23 -93 31 -89 l47 3 18 70 c10 39 18 73 18 78
0 4 -22 7 -49 7 l-49 0 -16 -69z"/>
<path d="M1836 2252 c-6 -10 -36 -127 -36 -141 0 -14 87 -15 95 0 8 12 34 117
35 137 0 13 -85 18 -94 4z"/>
<path d="M2100 2130 c-13 -25 2 -33 52 -28 25 2 34 8 36 26 3 20 -1 22 -37 22
-30 0 -43 -5 -51 -20z"/>
<path d="M3336 2134 c-12 -30 -6 -35 42 -32 40 3 47 6 50 26 3 20 -1 22 -41
22 -32 0 -47 -5 -51 -16z"/>
<path d="M2216 1851 c-4 -7 -5 -15 -2 -18 9 -9 19 4 14 18 -4 11 -6 11 -12 0z"/>
<path d="M4825 341 c-6 -11 12 -25 37 -26 17 -2 17 0 1 17 -18 20 -29 23 -38
9z"/>
<path d="M4785 300 c-19 -20 -18 -22 18 -58 l37 -37 22 24 23 24 -27 -16 c-23
-14 -26 -15 -22 -2 4 10 2 13 -8 10 -9 -4 -22 4 -32 19 -11 17 -12 24 -3 20 8
-3 13 3 13 16 0 24 1 24 -21 0z"/>
</g>
</svg>
